<?xml version="1.0" encoding="UTF-8"?>
<svg id="Layer_2" data-name="Layer 2" xmlns="http://www.w3.org/2000/svg" width="296.21" height="85.07" viewBox="0 0 296.21 85.07">
  <defs>
    <style>
      .cls-1 {
        opacity: .99;
      }

      .cls-1, .cls-2, .cls-3 {
        fill: #fff;
      }

      .cls-1, .cls-3 {
        font-family: Arial-BoldMT, Arial;
        font-size: 40px;
        font-weight: 700;
      }

      .cls-4 {
        fill: #be1e2d;
      }

      .cls-3 {
        opacity: .96;
      }
    </style>
  </defs>
  <g id="Layer_1-2" data-name="Layer 1">
    <text class="cls-3" transform="translate(0 36.07)"><tspan x="0" y="0">MED</tspan></text>
    <text class="cls-1" transform="translate(118.09 35.58)"><tspan x="0" y="0">SURE</tspan></text>
    <path class="cls-2" d="M93.98,19.75c.01,1.5.05,2.85,0,5.98-.05,3.19-.12,4.88,0,5.55.52,2.81,1.71,4.85,2.11,5.45.54.8,1.99,2.63,4.49,3.51,3.14,1.11,6.61-.06,8.81-2.83.45-.57,2.15-2.99,2.4-5.68.07-.79.14-1.87.12-2.72-.02-1.06.03-1.63.04-2.72.04-3.82-.02-6.03-.02-6.05s-17.88.05-17.88.02c0-.11,17.83,0,17.88-.02"/>
    <path class="cls-4" d="M111.97,20.45c-.01-1.5-.01-2.4.04-5.53.05-3.19.12-4.88,0-5.55-.52-2.81-1.71-4.85-2.11-5.45-.54-.8-1.99-2.63-4.49-3.51-3.14-1.11-6.61.06-8.81,2.83-.45.57-2.15,2.99-2.4,5.68-.07.79-.14,1.87-.12,2.72.02,1.06-.03,1.63-.04,2.72-.04,3.82.02,6.03.02,6.05s17.88-.05,17.88-.02c0,.11-17.83,0-17.88.02"/>
  </g>
</svg>